<?xml version="1.0" encoding="utf-8"?>
<!-- Generator: Adobe Illustrator 18.1.1, SVG Export Plug-In . SVG Version: 6.00 Build 0)  -->
<svg version="1.1" xmlns="http://www.w3.org/2000/svg" xmlns:xlink="http://www.w3.org/1999/xlink" x="0px" y="0px"
	 viewBox="0 0 1000 1000" enable-background="new 0 0 1000 1000" xml:space="preserve">
<g id="Layer_1">
	<g>
		<path d="M517.4,521.9c-1,17.6,0.7,35,5.4,52c2.8,10.4,6.3,20.6,9.6,30.9c3.3,10.1,6.4,20.3,10.1,30.3c5.8,15.4,11.8,30.8,18.1,46
			c7.1,17,14.5,34,22,50.8c6.5,14.5,13.4,28.8,20.3,43.1c6.3,13,12.8,26,19.5,38.9c5.7,11,11.6,22,17.8,32.8
			c5.6,9.7,11.6,19.1,17.6,28.6c1.5,2.3,3.5,4.4,5.5,6.3c0.7,0.7,2.2,1,3.1,0.7c0.6-0.2,1-2,0.8-2.9c-0.9-3.2-2-6.4-3.1-9.6
			c-0.3-0.9-0.7-1.7-1-2.5c-5.9-15.7-11.6-31.4-17.7-47c-4.8-12.4-10.1-24.5-15.1-36.8c-1.9-4.7-3.5-9.4-5.4-14.1
			c-3.5-8.9-7.3-17.8-10.7-26.8c-3.2-8.2-6-16.6-9-24.9c-3.4-9.3-7.1-18.6-10.3-28c-3.2-9-6-18.2-9-27.3c-2.5-7.7-5.4-15.2-7.5-23
			c-4.7-17.9-8.9-35.9-13.6-53.8c-3.8-14.5-5.7-29.3-6.9-44.2c-1.8-20.3-1.3-40.6,2.5-60.7c0.9-4.7,1.4-9.5,2.7-14.1
			c4.2-15,8.6-29.9,13.2-44.8c1.9-6.3,4.2-12.6,6.8-18.6c6.4-14.7,12.7-29.5,19.8-43.9c6-12.2,12.8-24.2,19.8-35.9
			c6.3-10.5,13.2-20.7,20.3-30.7c5.7-8,11.9-15.6,18.2-23c3.9-4.6,9.1-6.9,15.3-5.3c8.1,2.1,16.1,4.2,24.1,6.6
			c14.7,4.5,28.9,10.4,42.7,17.1c6.4,3.1,12.7,6.2,18.9,9.7c9.6,5.3,19.3,10.5,28.4,16.4c10.9,7.1,21.5,14.7,31.8,22.7
			c7.6,5.9,14.8,12.4,21.6,19.2c6.1,6.2,11.6,13,17.1,19.8c7.9,9.7,14.2,20.4,19.9,31.5c11.5,22.5,17,46.3,15.4,71.7
			c-1,14.9-4,29.3-9.6,43.1c-5.2,12.8-10.8,25.6-19.1,36.8c-6.6,8.9-13.7,17.6-21.2,25.8c-5.8,6.4-12.4,12.1-19,17.7
			c-7,5.8-14.3,11.2-21.7,16.4c-5.8,4.1-11.7,8-17.9,11.4c-13,7-25.9,14.1-39.4,20.2c-14,6.3-28.3,11.8-42.8,16.8
			c-13.9,4.8-28.1,8.4-42.2,12.6c-10,3-20.1,6-30,9.3c-4.9,1.6-9.6,3.9-14.4,6c-1.9,0.8-2.5,2.3-1.8,4.2c2.4,6.6,4.8,13.3,7.2,19.9
			c2.4,6.6,4.9,13.2,7.4,19.7c3.6,9.4,7.2,18.8,11,28.1c4.7,11.7,9.6,23.3,14.3,35c0.7,1.7,1.7,1.3,2.8,1.1c5.5-1.1,11-2.3,16.5-3.5
			c15.8-3.4,31.1-8.2,46.1-14.1c13.5-5.4,27-10.8,40.2-16.8c13.7-6.2,27-13,40.4-19.8c7.1-3.6,13.9-7.5,20.8-11.4
			c6.5-3.7,12.9-7.7,19.3-11.6c12.6-7.5,24.6-15.8,35.8-25.1c8.1-6.7,15.9-13.6,23.6-20.7c7.3-6.9,14.4-14,21.3-21.4
			c6.6-7.1,13-14.5,18.9-22.2c6.3-8.1,12.1-16.6,17.8-25.2c8.7-13.3,15.4-27.6,20.8-42.5c7-19.3,11.7-39,12.3-59.6
			c0.5-16.2-1.8-32-7.3-47.2c-5.6-15.4-11.5-30.8-20-44.9c-6.1-10.1-12.7-19.9-19.8-29.3c-5.7-7.6-12.1-14.6-18.7-21.4
			c-6.7-6.9-13.9-13.4-21.3-19.6c-6.5-5.5-13.3-10.9-20.4-15.7c-13.6-9.3-27.3-18.4-42.1-25.9c-5.4-2.7-10.5-6-16-8.5
			c-14.9-6.8-29.7-13.6-44.8-19.8c-12.4-5.1-25.1-9.7-37.8-14.1c-13-4.5-26.1-8.7-39.4-12.5c-7.9-2.3-16-4-24.1-5.3
			c-13-2-23.4,3-32.4,12.3c-9.3,9.7-17,20.6-24.7,31.5c-6.8,9.7-13.6,19.4-20,29.4c-6.8,10.5-13.4,21.2-19.7,31.9
			c-7,11.8-13.9,23.8-20.4,35.8c-6.9,12.7-13.4,25.5-20,38.4c-3.8,7.3-7.6,14.6-11,22.1c-3.4,7.8-6.1,15.9-9.4,23.7
			c-4.9,11.4-5.5,23.5-6.5,35.5C517.7,511.1,517.6,516.5,517.4,521.9z"/>
		<path d="M482.6,521.8c1,17.6-0.7,35-5.4,52c-2.8,10.4-6.3,20.6-9.6,30.9c-3.3,10.1-6.4,20.3-10.1,30.3
			c-5.8,15.4-11.8,30.8-18.1,46c-7.1,17-14.5,34-22,50.8c-6.5,14.5-13.4,28.8-20.3,43.1c-6.3,13-12.8,26-19.5,38.9
			c-5.7,11-11.6,22-17.8,32.8c-5.6,9.7-11.6,19.1-17.6,28.6c-1.5,2.3-3.5,4.4-5.5,6.3c-0.7,0.7-2.2,1-3.1,0.7c-0.6-0.2-1-2-0.8-2.9
			c0.9-3.2,2-6.4,3.1-9.6c0.3-0.9,0.7-1.7,1-2.5c5.9-15.7,11.6-31.4,17.7-47c4.8-12.4,10.1-24.5,15.1-36.8c1.9-4.7,3.5-9.4,5.4-14.1
			c3.5-8.9,7.3-17.8,10.7-26.8c3.2-8.2,6-16.6,9-24.9c3.4-9.3,7.1-18.6,10.3-28c3.2-9,6-18.2,9-27.3c2.5-7.7,5.4-15.2,7.5-23
			c4.7-17.9,8.9-35.9,13.6-53.8c3.8-14.5,5.7-29.3,6.9-44.2c1.8-20.3,1.3-40.6-2.5-60.7c-0.9-4.7-1.4-9.5-2.7-14.1
			c-4.2-15-8.6-29.9-13.2-44.8c-1.9-6.3-4.2-12.6-6.8-18.6c-6.4-14.7-12.7-29.5-19.8-43.9c-6-12.2-12.8-24.2-19.8-35.9
			c-6.3-10.5-13.2-20.7-20.3-30.7c-5.7-8-11.9-15.6-18.2-23c-3.9-4.6-9.1-6.9-15.3-5.3c-8.1,2.1-16.1,4.2-24.1,6.6
			c-14.7,4.5-28.9,10.4-42.7,17.1c-6.4,3.1-12.7,6.2-18.9,9.7c-9.6,5.3-19.3,10.5-28.4,16.4c-10.9,7.1-21.5,14.7-31.8,22.7
			c-7.6,5.9-14.8,12.4-21.6,19.2c-6.1,6.2-11.6,13-17.1,19.8c-7.9,9.7-14.2,20.4-19.9,31.5c-11.5,22.5-17,46.3-15.4,71.7
			c1,14.9,4,29.3,9.6,43.1c5.2,12.8,10.8,25.6,19.1,36.8c6.6,8.9,13.7,17.6,21.2,25.8c5.8,6.4,12.4,12.1,19,17.7
			c7,5.8,14.3,11.2,21.7,16.4c5.8,4.1,11.7,8,17.9,11.4c13,7,25.9,14.1,39.4,20.2c14,6.3,28.3,11.8,42.8,16.8
			c13.9,4.8,28.1,8.4,42.2,12.6c10,3,20.1,6,30,9.3c4.9,1.6,9.6,3.9,14.4,6c1.9,0.8,2.5,2.3,1.8,4.2c-2.4,6.6-4.8,13.3-7.2,19.9
			c-2.4,6.6-4.9,13.2-7.4,19.7c-3.6,9.4-7.2,18.8-11,28.1c-4.7,11.7-9.6,23.3-14.3,35c-0.7,1.7-1.7,1.3-2.8,1.1
			c-5.5-1.1-11-2.3-16.5-3.5c-15.8-3.4-31.1-8.2-46.1-14.1c-13.5-5.4-27-10.8-40.2-16.8c-13.7-6.2-27-13-40.4-19.8
			c-7.1-3.6-13.9-7.5-20.8-11.4c-6.5-3.7-12.9-7.7-19.3-11.6c-12.6-7.5-24.6-15.8-35.8-25.1c-8.1-6.7-15.9-13.6-23.6-20.7
			c-7.3-6.9-14.4-14-21.3-21.4c-6.6-7.1-13-14.5-18.9-22.2c-6.3-8.1-12.1-16.6-17.8-25.2c-8.7-13.3-15.4-27.6-20.8-42.5
			c-7-19.3-11.7-39-12.3-59.6c-0.5-16.2,1.8-32,7.3-47.2c5.6-15.4,11.5-30.8,20-44.9c6.1-10.1,12.7-19.9,19.8-29.3
			c5.7-7.6,12.1-14.6,18.7-21.4c6.7-6.9,13.9-13.4,21.3-19.6c6.5-5.5,13.3-10.9,20.4-15.7c13.6-9.3,27.3-18.4,42.1-25.9
			c5.4-2.7,10.5-6,16-8.5c14.9-6.8,29.7-13.6,44.8-19.8c12.4-5.1,25.1-9.7,37.8-14.1c13-4.5,26.1-8.7,39.4-12.5
			c7.9-2.3,16-4,24.1-5.3c13-2,23.4,3,32.4,12.3c9.3,9.7,17,20.6,24.7,31.5c6.8,9.7,13.6,19.4,20,29.4c6.8,10.5,13.4,21.2,19.7,31.9
			c7,11.8,13.9,23.8,20.4,35.8c6.9,12.7,13.4,25.5,20,38.4c3.8,7.3,7.6,14.6,11,22.1c3.4,7.8,6.1,15.9,9.4,23.7
			c4.9,11.4,5.5,23.5,6.5,35.5C482.3,511,482.4,516.4,482.6,521.8z"/>
		<path d="M500.1,822.9c-21.6-0.5-38.3-0.9-55.1-1.4c-13-0.4-25.7-3-38.1-6.9c-5.6-1.7-6.4-2.6-4.6-8.1c3.4-10.6,6.8-21.2,11.1-31.5
			c6.4-15.6,13.6-30.9,20.5-46.3c4-8.9,8.1-17.6,12.1-26.5c0.7-1.4,1.4-2.1,3.1-2.1c34,0,67.9-0.1,101.9-0.2c1.7,0,2.5,0.6,3.1,2.1
			c7,15.4,14.1,30.7,21,46.1c6.4,14.4,12.8,28.8,19,43.2c2,4.6,3.3,9.4,4.9,14.2c0.2,0.6,0.3,1.3,0.4,1.9c0.7,5.7-0.5,7.8-6.1,9
			c-4.9,1.1-9.9,2-14.9,2.3C550.6,820.4,523,821.7,500.1,822.9z"/>
		<path d="M426.6,298.8c4.6-2,9-3.8,13.4-5.8c18.4-8.2,36.8-16.4,55.1-24.6c3.2-1.4,5.9-1.6,9.3,0c10.3,4.9,20.7,9.4,31.1,14.1
			c11.8,5.2,23.5,10.4,35.3,15.5c0.5,0.2,1,0.5,1.9,1c-2.9,3.6-5.7,7-8.5,10.6c-8.7,11.1-17.7,21.9-26,33.3
			c-7.3,10-13.7,20.7-20.7,31c-4.6,6.8-9.5,13.4-14.4,20.1c-2,2.7-2.6,2.5-5,0.1c-7.9-8-13-18-19.2-27.2
			c-7.2-10.8-14.2-21.6-21.8-32c-5.9-8.1-12.6-15.7-19-23.4c-2.7-3.2-5.7-6.1-8.6-9.2C428.7,301.3,427.8,300.2,426.6,298.8z"/>
	</g>
</g>
<g id="Blank">
	<rect fill="none" width="1000" height="1000"/>
</g>
</svg>
